<?xml version="1.0" encoding="utf-8"?>
<!-- Generator: Adobe Illustrator 23.0.6, SVG Export Plug-In . SVG Version: 6.00 Build 0)  -->
<svg version="1.1" id="Layer_1" xmlns="http://www.w3.org/2000/svg" xmlns:xlink="http://www.w3.org/1999/xlink" x="0px" y="0px"
	 viewBox="0 0 500 141.7" style="enable-background:new 0 0 500 141.7;" xml:space="preserve">
<style type="text/css">
	.st0{fill:#FFD635;}
	.st1{fill:#FFFFFF;}
</style>
<g>
	<circle class="st0" cx="43.74" cy="43.29" r="22.59"/>
	<path class="st1" d="M43.74,66.38c-12.73,0-23.09-10.36-23.09-23.09S31.01,20.2,43.74,20.2c12.73,0,23.09,10.36,23.09,23.09
		S56.47,66.38,43.74,66.38z M43.74,21.2c-12.18,0-22.09,9.91-22.09,22.09s9.91,22.09,22.09,22.09s22.09-9.91,22.09-22.09
		S55.92,21.2,43.74,21.2z"/>
</g>
<g>
	<circle cx="112.98" cy="43.29" r="22.59"/>
	<path class="st1" d="M112.98,66.38c-12.73,0-23.09-10.36-23.09-23.09s10.36-23.09,23.09-23.09s23.09,10.36,23.09,23.09
		S125.71,66.38,112.98,66.38z M112.98,21.2c-12.18,0-22.09,9.91-22.09,22.09s9.91,22.09,22.09,22.09s22.09-9.91,22.09-22.09
		S125.16,21.2,112.98,21.2z"/>
</g>
<g>
	<circle cx="182.22" cy="43.29" r="22.59"/>
	<path class="st1" d="M182.22,66.38c-12.73,0-23.09-10.36-23.09-23.09s10.36-23.09,23.09-23.09c12.73,0,23.09,10.36,23.09,23.09
		S194.95,66.38,182.22,66.38z M182.22,21.2c-12.18,0-22.09,9.91-22.09,22.09s9.91,22.09,22.09,22.09s22.09-9.91,22.09-22.09
		S194.4,21.2,182.22,21.2z"/>
</g>
<g>
	<circle cx="251.46" cy="43.29" r="22.59"/>
	<path class="st1" d="M251.46,66.38c-12.73,0-23.09-10.36-23.09-23.09s10.36-23.09,23.09-23.09s23.09,10.36,23.09,23.09
		S264.19,66.38,251.46,66.38z M251.46,21.2c-12.18,0-22.09,9.91-22.09,22.09s9.91,22.09,22.09,22.09c12.18,0,22.09-9.91,22.09-22.09
		S263.64,21.2,251.46,21.2z"/>
</g>
<g>
	<circle cx="320.7" cy="43.29" r="22.59"/>
	<path class="st1" d="M320.7,66.38c-12.73,0-23.09-10.36-23.09-23.09S307.97,20.2,320.7,20.2s23.09,10.36,23.09,23.09
		S333.43,66.38,320.7,66.38z M320.7,21.2c-12.18,0-22.09,9.91-22.09,22.09s9.91,22.09,22.09,22.09c12.18,0,22.09-9.91,22.09-22.09
		S332.88,21.2,320.7,21.2z"/>
</g>
<g>
	<circle cx="389.94" cy="43.29" r="22.59"/>
	<path class="st1" d="M389.94,66.38c-12.73,0-23.09-10.36-23.09-23.09s10.36-23.09,23.09-23.09s23.09,10.36,23.09,23.09
		S402.67,66.38,389.94,66.38z M389.94,21.2c-12.18,0-22.09,9.91-22.09,22.09s9.91,22.09,22.09,22.09c12.18,0,22.09-9.91,22.09-22.09
		S402.12,21.2,389.94,21.2z"/>
</g>
<g>
	<circle cx="459.18" cy="43.29" r="22.59"/>
	<path class="st1" d="M459.18,66.38c-12.73,0-23.09-10.36-23.09-23.09s10.36-23.09,23.09-23.09s23.09,10.36,23.09,23.09
		S471.91,66.38,459.18,66.38z M459.18,21.2c-12.18,0-22.09,9.91-22.09,22.09s9.91,22.09,22.09,22.09c12.18,0,22.09-9.91,22.09-22.09
		S471.36,21.2,459.18,21.2z"/>
</g>
<text transform="matrix(1 0 0 1 -109.085 155.5106)" style="font-family:'MyriadPro-Regular'; font-size:12px;">Lorem ipsum</text>
<g>
	<path d="M37.52,36.7V47.9h4.31v2.71h-7.52V36.7H37.52z"/>
	<path d="M53.25,50.17c-1.23,0.63-2.23,0.75-3.06,0.75c-2.56,0-4.29-0.88-5.46-2.02c-1.25-1.21-2.17-3.04-2.17-5.27
		c0-2.19,0.92-4.02,2.17-5.23c1.23-1.19,3.02-2,5.19-2c0.92,0,1.98,0.19,3.33,0.77v3.71c-0.71-0.75-1.77-1.48-3.25-1.48
		c-1.17,0-2.1,0.38-2.83,1.08c-0.77,0.75-1.31,1.88-1.31,3.21c0,1.44,0.58,2.46,1.21,3.06c0.29,0.29,1.29,1.17,3,1.17
		c0.83,0,1.96-0.23,3.19-1.44V50.17z"/>
</g>
<g>
	<path class="st1" d="M101.73,50.61V36.7h2.79l7.55,8.96V36.7h3.21v13.9h-2.79l-7.55-9v9H101.73z"/>
	<path class="st1" d="M123.2,39.41v11.19h-3.21V39.41h-3.02V36.7h9.25v2.71H123.2z"/>
</g>
<g>
	<path class="st1" d="M172.25,36.7l3.52,8.9l3.52-8.9h3.46l-5.9,13.9h-2.17l-5.9-13.9H172.25z"/>
	<path class="st1" d="M196.11,44.94c0,1.33-0.17,2.98-1.54,4.4c-1.33,1.38-2.88,1.58-4.34,1.58s-3-0.21-4.34-1.58
		c-1.38-1.42-1.54-3.06-1.54-4.4V36.7h3.21v8.15c0,0.6,0.04,1.63,0.73,2.33c0.56,0.6,1.33,0.73,1.94,0.73s1.38-0.13,1.94-0.73
		c0.69-0.71,0.73-1.73,0.73-2.33V36.7h3.21V44.94z"/>
</g>
<g>
	<path class="st1" d="M246.85,39.41h-4.65v2.69h4.42v2.71h-4.42v3.08h4.65v2.71h-7.86V36.7h7.86V39.41z"/>
	<path class="st1" d="M249.45,50.61V36.7h2.79l7.54,8.96V36.7H263v13.9h-2.79l-7.54-9v9H249.45z"/>
</g>
<g>
	<path class="st1" d="M320.19,50.17c-1.23,0.63-2.23,0.75-3.06,0.75c-2.56,0-4.29-0.88-5.46-2.02c-1.25-1.21-2.17-3.04-2.17-5.27
		c0-2.19,0.92-4.02,2.17-5.23c1.23-1.19,3.02-2,5.19-2c0.92,0,1.98,0.19,3.33,0.77v3.71c-0.71-0.75-1.77-1.48-3.25-1.48
		c-1.17,0-2.11,0.38-2.83,1.08c-0.77,0.75-1.31,1.88-1.31,3.21c0,1.44,0.58,2.46,1.21,3.06c0.29,0.29,1.29,1.17,3,1.17
		c0.83,0,1.96-0.23,3.19-1.44V50.17z"/>
	<path class="st1" d="M327.62,36.7c1.77,0,2.88,0.58,3.54,1.21c0.58,0.56,1.21,1.56,1.21,3.11c0,0.88-0.19,1.96-1.08,2.83
		c-0.48,0.46-1.17,0.88-1.94,1.06l4.27,5.69h-3.92l-3.75-5.48v5.48h-3.21V36.7H327.62z M325.95,43.02h0.73
		c0.58,0,1.38-0.06,1.92-0.6c0.23-0.23,0.52-0.67,0.52-1.36c0-0.79-0.38-1.21-0.65-1.42c-0.52-0.4-1.35-0.44-1.77-0.44h-0.75V43.02z
		"/>
</g>
<g>
	<path class="st1" d="M384.74,39.41h-4.65v2.69h4.42v2.71h-4.42v3.08h4.65v2.71h-7.86V36.7h7.86V39.41z"/>
	<path class="st1" d="M389.24,36.7l2.96,9.21l2.96-9.21h2.21l2.96,9.21l2.96-9.21h3.33l-4.73,13.9h-2.71l-2.92-8.44l-2.92,8.44
		h-2.71l-4.73-13.9H389.24z"/>
</g>
<g>
	<path class="st1" d="M455.85,39.41h-4.65v2.69h4.42v2.71h-4.42v3.08h4.65v2.71h-7.86V36.7h7.86V39.41z"/>
	<path class="st1" d="M462.24,43.23l-4.31-6.52h3.86l2.29,3.96l2.29-3.96h3.86l-4.31,6.52l5.11,7.38h-3.86l-3.08-4.82l-3.08,4.82
		h-3.86L462.24,43.23z"/>
</g>
<g>
	<path d="M24.57,81.95v8h2.75v1.34h-4.17v-9.34H24.57z"/>
	<path d="M33.69,89.95c-0.25,0.45-0.62,0.84-0.99,1.08c-0.48,0.31-1.11,0.45-1.74,0.45c-0.78,0-1.43-0.2-1.99-0.76
		c-0.56-0.56-0.87-1.37-0.87-2.25c0-0.91,0.32-1.79,0.94-2.42c0.49-0.49,1.13-0.8,1.98-0.8c0.94,0,1.54,0.41,1.89,0.77
		c0.76,0.79,0.83,1.88,0.83,2.49v0.17H29.5c0.03,0.42,0.21,0.9,0.5,1.19c0.32,0.32,0.71,0.38,1.05,0.38c0.38,0,0.66-0.08,0.94-0.29
		c0.24-0.18,0.42-0.42,0.55-0.64L33.69,89.95z M32.33,87.55c-0.06-0.32-0.21-0.6-0.42-0.8c-0.18-0.17-0.48-0.34-0.92-0.34
		c-0.48,0-0.78,0.2-0.97,0.38c-0.2,0.18-0.35,0.46-0.42,0.76H32.33z"/>
	<path d="M39.47,85.4h1.37v5.9h-1.37v-0.62c-0.6,0.7-1.34,0.8-1.76,0.8c-1.82,0-2.86-1.51-2.86-3.14c0-1.92,1.32-3.09,2.87-3.09
		c0.43,0,1.19,0.11,1.75,0.84V85.4z M36.25,88.37c0,1.02,0.64,1.88,1.64,1.88c0.87,0,1.67-0.63,1.67-1.86c0-1.29-0.8-1.9-1.67-1.9
		C36.89,86.48,36.25,87.32,36.25,88.37z"/>
	<path d="M45.15,86.95c-0.14-0.22-0.41-0.5-0.84-0.5c-0.2,0-0.34,0.07-0.42,0.15c-0.07,0.07-0.13,0.18-0.13,0.31
		c0,0.15,0.07,0.25,0.2,0.34c0.08,0.06,0.17,0.08,0.46,0.24l0.7,0.35c0.31,0.15,0.6,0.31,0.83,0.55c0.32,0.32,0.43,0.69,0.43,1.09
		c0,0.53-0.2,1-0.52,1.34c-0.46,0.5-1.04,0.66-1.65,0.66c-0.38,0-0.85-0.06-1.27-0.38c-0.34-0.25-0.62-0.66-0.76-1.08l1.12-0.53
		c0.07,0.2,0.2,0.45,0.32,0.56c0.08,0.08,0.28,0.22,0.6,0.22c0.21,0,0.43-0.07,0.56-0.2c0.11-0.11,0.2-0.29,0.2-0.46
		s-0.06-0.31-0.18-0.45c-0.17-0.17-0.36-0.27-0.59-0.36l-0.5-0.24c-0.27-0.13-0.59-0.28-0.81-0.5c-0.31-0.29-0.42-0.62-0.42-1
		c0-0.48,0.18-0.94,0.49-1.26c0.27-0.28,0.71-0.56,1.44-0.56c0.42,0,0.76,0.08,1.09,0.31c0.2,0.13,0.46,0.35,0.67,0.73L45.15,86.95z
		"/>
	<path d="M49.03,86.66v4.64h-1.37v-4.64h-0.57V85.4h0.57v-2.16h1.37v2.16h1.05v1.26H49.03z"/>
	<path d="M61.43,84.14c-1.04-0.94-2-1.04-2.54-1.04c-2.03,0-3.4,1.5-3.4,3.56c0,1.98,1.43,3.5,3.42,3.5c1.12,0,1.99-0.57,2.52-1.08
		v1.69c-0.94,0.56-1.92,0.7-2.56,0.7c-1.69,0-2.76-0.77-3.31-1.29c-1.09-1.02-1.5-2.21-1.5-3.53c0-1.72,0.71-2.91,1.5-3.66
		c0.97-0.91,2.09-1.22,3.38-1.22c0.85,0,1.68,0.15,2.49,0.67V84.14z"/>
	<path d="M68.94,88.35c0,1.81-1.37,3.12-3.15,3.12s-3.15-1.32-3.15-3.12c0-1.82,1.37-3.11,3.15-3.11S68.94,86.53,68.94,88.35z
		 M67.54,88.37c0-1.34-0.88-1.89-1.75-1.89c-0.87,0-1.75,0.55-1.75,1.89c0,1.13,0.67,1.88,1.75,1.88S67.54,89.5,67.54,88.37z"/>
	<path d="M70.35,85.4h1.37v0.55c0.59-0.66,1.26-0.7,1.6-0.7c1.09,0,1.55,0.55,1.74,0.8c0.22,0.32,0.36,0.73,0.36,1.64v3.61h-1.37
		v-3.28c0-1.5-0.56-1.54-1.08-1.54c-0.62,0-1.25,0.08-1.25,1.99v2.83h-1.37V85.4z"/>
	<path d="M81.72,87.2c-0.63-0.62-1.25-0.73-1.67-0.73c-0.64,0-1.05,0.27-1.3,0.52c-0.25,0.25-0.5,0.7-0.5,1.36
		c0,0.69,0.27,1.15,0.53,1.42c0.31,0.29,0.74,0.48,1.25,0.48c0.56,0,1.22-0.22,1.69-0.76v1.53c-0.34,0.21-0.88,0.46-1.79,0.46
		c-0.98,0-1.68-0.28-2.24-0.87c-0.42-0.43-0.84-1.13-0.84-2.21c0-1.11,0.46-1.85,0.9-2.28c0.46-0.46,1.21-0.87,2.37-0.87
		c0.45,0,0.98,0.07,1.61,0.42V87.2z"/>
	<path d="M88.31,89.95c-0.25,0.45-0.62,0.84-0.99,1.08c-0.48,0.31-1.11,0.45-1.74,0.45c-0.78,0-1.43-0.2-1.99-0.76
		c-0.56-0.56-0.87-1.37-0.87-2.25c0-0.91,0.32-1.79,0.94-2.42c0.49-0.49,1.13-0.8,1.98-0.8c0.94,0,1.54,0.41,1.89,0.77
		c0.76,0.79,0.83,1.88,0.83,2.49v0.17h-4.23c0.03,0.42,0.21,0.9,0.5,1.19c0.32,0.32,0.71,0.38,1.05,0.38c0.38,0,0.66-0.08,0.94-0.29
		c0.24-0.18,0.42-0.42,0.55-0.64L88.31,89.95z M86.95,87.55c-0.06-0.32-0.21-0.6-0.42-0.8c-0.18-0.17-0.48-0.34-0.92-0.34
		c-0.48,0-0.78,0.2-0.97,0.38c-0.2,0.18-0.35,0.46-0.42,0.76H86.95z"/>
	<path d="M89.78,85.4h1.37v0.53c0.15-0.18,0.38-0.38,0.57-0.49c0.27-0.15,0.53-0.2,0.84-0.2c0.34,0,0.7,0.06,1.08,0.28l-0.56,1.25
		c-0.31-0.2-0.56-0.21-0.7-0.21c-0.29,0-0.59,0.04-0.85,0.32c-0.38,0.41-0.38,0.97-0.38,1.36v3.05h-1.37V85.4z"/>
	<path d="M94.41,85.4h1.37v0.55c0.59-0.66,1.26-0.7,1.6-0.7c1.09,0,1.55,0.55,1.74,0.8c0.22,0.32,0.36,0.73,0.36,1.64v3.61h-1.37
		v-3.28c0-1.5-0.56-1.54-1.08-1.54c-0.62,0-1.25,0.08-1.25,1.99v2.83h-1.37V85.4z"/>
</g>
<g>
	<path d="M448.74,83.3h-3.73v2.37h3.61v1.34h-3.61v2.94h3.73v1.34h-5.16v-9.34h5.16V83.3z"/>
	<path d="M452.16,88.1l-2.1-2.7h1.63l1.3,1.72l1.32-1.72h1.68l-2.17,2.7l2.52,3.19h-1.65l-1.7-2.2l-1.75,2.2h-1.68L452.16,88.1z"/>
	<path d="M458.69,86.66v4.64h-1.37v-4.64h-0.57V85.4h0.57v-2.16h1.37v2.16h1.05v1.26H458.69z"/>
	<path d="M461.35,82.08c0.5,0,0.88,0.38,0.88,0.88c0,0.5-0.38,0.88-0.88,0.88c-0.5,0-0.88-0.38-0.88-0.88
		C460.47,82.45,460.85,82.08,461.35,82.08z M462.04,85.4v5.9h-1.37v-5.9H462.04z"/>
	<path d="M463.76,85.4h1.37v0.55c0.59-0.66,1.26-0.7,1.6-0.7c1.09,0,1.55,0.55,1.74,0.8c0.22,0.32,0.36,0.73,0.36,1.64v3.61h-1.37
		v-3.28c0-1.5-0.56-1.54-1.08-1.54c-0.62,0-1.25,0.08-1.25,1.99v2.83h-1.37V85.4z"/>
	<path d="M475.13,87.2c-0.63-0.62-1.25-0.73-1.67-0.73c-0.64,0-1.05,0.27-1.3,0.52c-0.25,0.25-0.5,0.7-0.5,1.36
		c0,0.69,0.27,1.15,0.53,1.42c0.31,0.29,0.74,0.48,1.25,0.48c0.56,0,1.22-0.22,1.69-0.76v1.53c-0.34,0.21-0.88,0.46-1.79,0.46
		c-0.98,0-1.68-0.28-2.24-0.87c-0.42-0.43-0.84-1.13-0.84-2.21c0-1.11,0.46-1.85,0.9-2.28c0.46-0.46,1.2-0.87,2.37-0.87
		c0.45,0,0.98,0.07,1.61,0.42V87.2z"/>
	<path d="M477.86,86.66v4.64h-1.37v-4.64h-0.57V85.4h0.57v-2.16h1.37v2.16h1.05v1.26H477.86z"/>
</g>
<path d="M-61-53.26l-18.49-18.49c-1.68-1.68-4.4-1.68-6.07,0l-18.53,18.53c-2.71,2.71-0.79,7.34,3.04,7.33l37.02-0.04
	C-60.21-45.93-58.3-50.55-61-53.26z"/>
<g>
	<path d="M454.69,111.42l-8.73-8.73c-1.28-1.28-3.46-0.37-3.45,1.43l0.01,6.19H57.48l-0.01-6.19c0-1.8-2.18-2.7-3.45-1.43
		l-8.71,8.71c-0.79,0.79-0.79,2.07,0,2.86l8.73,8.73c1.28,1.28,3.46,0.37,3.45-1.43l-0.01-6.14h385.03l0.01,6.14
		c0,1.8,2.18,2.7,3.45,1.43l8.71-8.71C455.48,113.5,455.48,112.22,454.69,111.42z"/>
</g>
</svg>
